<svg xmlns="http://www.w3.org/2000/svg" width="100" height="100" viewBox="0 0 100 100"><path d="M46.481 0h7.037C63.93.011 65.782.079 70.615.299c5.322.243 8.957 1.088 12.137 2.324 3.288 1.278 6.076 2.988 8.856 5.767 2.78 2.78 4.49 5.569 5.768 8.857 1.235 3.18 2.081 6.815 2.323 12.137.232 5.083.296 6.868.301 18.783v3.665c-.005 11.914-.069 13.7-.301 18.783-.242 5.322-1.088 8.957-2.323 12.137-1.278 3.288-2.988 6.076-5.768 8.856-2.78 2.78-5.568 4.49-8.856 5.768-3.18 1.235-6.815 2.081-12.137 2.323-5.083.232-6.869.296-18.783.301h-3.665c-11.915-.005-13.7-.069-18.783-.301-5.322-.242-8.957-1.088-12.137-2.323-3.288-1.278-6.077-2.988-8.857-5.768-2.779-2.78-4.489-5.568-5.767-8.856C1.387 79.572.542 75.937.299 70.615.079 65.782.011 63.93 0 53.518v-7.037c.011-10.412.079-12.264.299-17.097.243-5.322 1.088-8.957 2.324-12.137C3.901 13.959 5.611 11.17 8.39 8.39c2.78-2.779 5.569-4.489 8.857-5.767C20.427 1.387 24.062.542 29.384.299 34.217.079 36.069.011 46.481 0Zh7.037Zm5.32 9.008h-3.603c-11.706.005-13.378.062-18.403.291-4.875.222-7.523 1.037-9.285 1.722-2.334.907-3.999 1.99-5.749 3.74-1.75 1.75-2.833 3.415-3.74 5.749-.685 1.762-1.5 4.41-1.722 9.285-.229 5.025-.286 6.697-.291 18.403v3.603c.005 11.706.062 13.378.291 18.403.222 4.875 1.037 7.523 1.722 9.285.907 2.333 1.99 3.999 3.74 5.749 1.75 1.749 3.415 2.833 5.749 3.74 1.762.685 4.41 1.499 9.285 1.722 5.107.233 6.75.288 18.987.291h2.435c12.237-.003 13.88-.058 18.987-.291 4.875-.223 7.523-1.037 9.285-1.722 2.333-.907 3.999-1.991 5.749-3.74 1.749-1.75 2.833-3.416 3.74-5.749.685-1.762 1.499-4.41 1.722-9.285.233-5.108.288-6.751.291-18.987v-2.435c-.003-12.236-.058-13.88-.291-18.987-.223-4.875-1.037-7.523-1.722-9.285-.907-2.334-1.991-3.999-3.74-5.749-1.75-1.75-3.416-2.833-5.749-3.74-1.762-.685-4.41-1.5-9.285-1.722-5.025-.229-6.697-.286-18.403-.291Zm-1.177 14.741c14.153 0 25.626 11.473 25.626 25.625C76.25 63.527 64.777 75 50.624 75c-14.152 0-25.625-11.473-25.625-25.626 0-14.152 11.473-25.625 25.625-25.625Zm0 8.991c-9.186 0-16.634 7.448-16.634 16.634 0 9.187 7.448 16.634 16.634 16.634 9.187 0 16.635-7.447 16.635-16.634 0-9.186-7.448-16.634-16.635-16.634ZM76.25 17.499a6.25 6.25 0 1 1 0 12.5 6.25 6.25 0 0 1 0-12.5Z"/></svg>