<svg xmlns="http://www.w3.org/2000/svg" height="100" width="100" viewBox="0 0 100 100">
  <path fill-rule="evenodd" d="M26.062.582c15.555.434 57.256-1.726 68.889.299C97.475 17.084 100 75.982 100 90.963c-2.022.668-4.645.668-6.667 0-1.963-1.563-4.151-3.135-6.564-3.917-2.849 1.493-7.059 5.277-8.587 8.133-5.228-2.942-7.753-2.44-11.617-6.127-2.793 3.456-6.161 6.136-10.099 8.034a70.74 70.74 0 0 1-10.102-5.018l-11.111 7.027-11.111-5.021c-4.059.151-6.617 2.963-13.232 5.926C7.12 86.779.673 31.613 0 13.736L26.062.582Zm5.654 9.139c13.738-2.277 38.982-1.856 55.556-1.006a1231.616 1231.616 0 0 1 4.546 71.301A21.87 21.87 0 0 0 85.253 76l-9.093 8.034a151.961 151.961 0 0 0-10.604-5.022 83.195 83.195 0 0 1-10.102 7.028c-3.522-1.415-5.621-2.243-8.831-4.172-2.58.726-6.25 3.332-8.046 5.286-2.525-25.095-4.67-52.32-6.861-77.433Zm-9.494 1.606c.756 1.003-4.21 12.821-5.555 13.658-1.763-1.83-4.892-4.643-6.161-6.83l11.716-6.828Zm3.636 7.834c.691 10.477 6.954 60.218 7.373 70.494-2.462-.775-6.839-1.646-7.071-4.215-1.595-16.791-3.447-35.938-5.555-52.624 1.315-2.938 4.546-10.572 5.253-13.655ZM7.071 22.373c1.309.794 5.92 8.225 6.969 9.44 2.386 18.363 5.247 36.572 6.565 55.03l-6.059 4.019c-1.799-19.44-5.234-49.098-7.475-68.489Z"/>
  <path d="M48.036 65.071c.713-4.345 8.909 3.268 13.9 3.226 4.99-.039 15.412-9.058 16.039-3.473C78.598 70.408 67.46 74.958 62.47 75c-4.991.042-15.147-5.584-14.434-9.929Z"/>
  <circle cx="45" cy="55" r="5"/>
  <circle cx="79" cy="53" r="5"/>
</svg>
