<svg xmlns="http://www.w3.org/2000/svg" viewBox="0 0 3677 1170">
  <path d="M912.683 1162.5H878.5l157.92-485h47.17l157.91 485h-34.17l-43.42-135.25H956.091l-43.408 135.25ZM1058.3 707.214l-92.639 289.297h188.679l-92.63-289.297h-3.41Zm301.38 455.286h-32.18v-512h32.18v333.826h24.63c13.86.046 27.71-.662 41.5-2.118 24.65-2.695 45.96-7.963 63.93-15.806a137.355 137.355 0 0 0 64.69-58.196c11.84-20.203 21.3-45.495 28.37-75.875a479.544 479.544 0 0 0 6.2-31.647h34.22c-6.39 41.417-16.42 76.404-30.11 104.963a202.124 202.124 0 0 1-26.36 41.699 169.231 169.231 0 0 1-27.72 26.739L1646.5 1162.5h-39.36l-95.49-171.352a207.177 207.177 0 0 1-48.32 16.752c-14.81 3.27-30.8 5.42-47.99 6.45-8.05.47-16.11.7-24.18.69h-31.48v147.46Zm458.77-139.83V831.481H1707.5V800.75h110.95V691.5h32.09v109.25h168.3v30.731h-168.3v191.189c0 65.86 24.94 103.53 74.81 113a146.62 146.62 0 0 0 27.27 2.4c8.46.01 16.93-.24 25.38-.74 4.75-.28 9.49-.66 14.22-1.14 12.24-1.25 24.43-3.02 36.52-5.3l3.76 30.39c-12.41 2.34-24.9 4.21-37.45 5.6-1.74.19-3.48.37-5.23.55-10.36 1-20.76 1.63-31.16 1.88-4.29.11-8.58.17-12.88.16-18.16.33-36.24-2.49-53.44-8.33-49.26-17.76-73.89-63.92-73.89-138.47Zm325.05 16.99V800.5h32.12v239.16c0 24.68 5.33 44.9 15.99 60.65 3.01 4.45 6.47 8.57 10.33 12.3 16.53 16 39.25 24.46 68.14 25.37 1.78.06 3.55.08 5.33.08 11.11.09 22.2-1.06 33.05-3.45 14.77-3.36 27.5-9.2 38.2-17.51 4.53-3.52 8.71-7.49 12.46-11.84a94.788 94.788 0 0 0 16.59-28.93c6.78-18.02 10.63-40.63 11.56-67.82.15-4.42.22-8.842.22-13.265V800.5h32.12v337.22l49.89 3.42v21.52l-75.86 3.41-2.74-73.11h-5.46c-7.06 24.15-20.45 42.94-40.15 56.38a113.141 113.141 0 0 1-41.29 17.08 158.62 158.62 0 0 1-32.02 3.08c-12.82.09-25.61-1.2-38.16-3.85-23.06-5.05-42.01-15.1-56.83-30.15-20.89-21.21-32.01-50.55-33.35-88.02-.09-2.61-.14-5.21-.14-7.82Zm701.95-50.635h-265.77a201.385 201.385 0 0 0 7.17 46.535 135.54 135.54 0 0 0 37.81 63.36 138.773 138.773 0 0 0 60.08 32.42c16.74 4.48 35.31 6.71 55.7 6.71 7.55-.01 15.1-.28 22.63-.81 6.38-.44 12.75-1.03 19.1-1.75 9.09-1.03 18.14-2.34 27.15-3.94 5.11-.91 10.19-1.94 15.26-3.07l5.14 31.45c-13 2.96-28.11 5.29-45.33 7.01a528.134 528.134 0 0 1-52.16 2.56c-59.06 0-104.78-16.86-137.15-50.59a165.804 165.804 0 0 1-39.85-71.91c-4.72-17.04-7.53-35.7-8.42-55.979-.2-4.765-.31-9.533-.3-14.302a301.686 301.686 0 0 1 4.28-52.573c3.34-18.919 8.64-35.927 15.91-51.024a147.679 147.679 0 0 1 20.51-31.761 132.455 132.455 0 0 1 79.91-44.865 195.732 195.732 0 0 1 35.01-2.989 176.239 176.239 0 0 1 44.76 5.362 122.434 122.434 0 0 1 62.47 38.047 143.043 143.043 0 0 1 29.19 54.126c5.97 19.881 8.95 42.515 8.95 67.903 0 11.835-.59 21.318-1.76 28.45-.09.542-.19 1.083-.29 1.624Zm-265.43-30.766h234.64c.08-12.871-.96-25.726-3.11-38.418-4.28-24.356-12.99-44.365-26.13-60.027-19.49-23.241-47.03-34.862-82.6-34.862-36.49 0-65.39 11.621-86.71 34.862a125.736 125.736 0 0 0-25.56 43.591c-4.25 11.965-7.28 25.182-9.09 39.649a258.038 258.038 0 0 0-1.44 15.205Zm486.01 84.901V681.233H2947.5V650.5h150.64v392.66c-.17 12.48 1.34 24.92 4.5 36.99 7.82 28.21 25.83 46.12 54.05 53.73 11.56 2.95 23.46 4.36 35.4 4.21 7.21-.04 14.43-.46 21.6-1.28 6.93-.76 14.32-1.86 22.16-3.3 8.35-1.55 16.65-3.32 24.89-5.32l3.76 30.38c-8.2 2.46-16.5 4.54-24.89 6.22-4.15.83-8.33 1.55-12.52 2.15-7.76 1.09-15.58 1.83-23.41 2.2-5 .24-10.01.36-15.02.36-65.2 0-104.4-26.79-117.6-80.36a192.326 192.326 0 0 1-5.03-45.98Zm410.38 0V681.233H3357.5V650.5h151.12v392.66c-.17 12.48 1.34 24.92 4.51 36.99 7.84 28.21 25.91 46.12 54.22 53.73 11.6 2.95 23.53 4.36 35.5 4.21 7.24-.04 14.48-.46 21.68-1.28 6.95-.76 14.36-1.86 22.23-3.3 8.37-1.55 16.7-3.32 24.97-5.32l3.77 30.38c-8.22 2.46-16.55 4.54-24.97 6.22-4.16.83-8.35 1.55-12.55 2.15-7.8 1.09-15.63 1.83-23.49 2.2-5.02.24-10.04.36-15.06.36-65.41 0-104.74-26.79-117.98-80.36a191.826 191.826 0 0 1-5.04-45.98ZM88.775 520.5H.5V.5h88.275v265.13a190.195 190.195 0 0 0 47.215-13.335 161.58 161.58 0 0 0 31.348-17.976 201.457 201.457 0 0 0 54.759-61.16 287.466 287.466 0 0 0 29.901-72.673 330.944 330.944 0 0 0 2.145-8.617A398.73 398.73 0 0 0 264.585.499h89.003a435.638 435.638 0 0 1-26.187 150.505 344.642 344.642 0 0 1-47.176 88.482 312.633 312.633 0 0 1-28.827 33.463L378.5 520.5H271.546l-93.767-194.453c-27.595 13.675-57.262 22.587-89.004 26.737V520.5Zm438.996 0H439.5V.5h88.271v265.13a190.173 190.173 0 0 0 47.214-13.335 161.532 161.532 0 0 0 31.356-17.976 201.45 201.45 0 0 0 54.761-61.16 287.466 287.466 0 0 0 29.901-72.673c.754-2.862 1.47-5.735 2.145-8.617A398.676 398.676 0 0 0 703.591.499h89.005a435.64 435.64 0 0 1-26.188 150.505 344.676 344.676 0 0 1-47.177 88.482 312.642 312.642 0 0 1-28.828 33.463L817.501 520.5H710.552l-93.769-194.453c-27.595 13.675-57.267 22.587-89.012 26.737V520.5Zm688.729 0h-126.2L975.802 118.418h-11.343V520.5H878.5V.5h126.2l114.5 402.082h11.33V.5h85.97v520Z" fill="#fafafa"/>
</svg>
