<svg xmlns="http://www.w3.org/2000/svg" viewBox="0 0 200 200">
	<defs>
		<radialGradient fx="50%" fy="100%" r="100%" id="midnight">
			<stop offset="0%" stop-color="rgb(100 100 150)" />
			<stop offset="70%" stop-color="rgb(0 0 50)" />
		</radialGradient>
		<radialGradient fx="50%" fy="100%" r="100%" id="moon">
			<stop offset="0%" stop-color="rgb(250 250 250)" />
			<stop offset="70%" stop-color="rgb(200 200 200)" />
		</radialGradient>
	</defs>
	<rect fill="url(#midnight)" width="200" height="100" />
	<path fill="url(#moon)" d="M 50 100 A 50 50 0 0 1 150 100 Z"/>
		<path fill="rgb(200 200 200)" d="M67.296 105.667c.047-.024 1.047.851 1.181.918.613.307-.247.888-.394 1.181-.415.83.826.656 1.312.656.811 0 .43.906.394 1.049-.156.622-.294.855 0 1.443.28.56-.131.814-.131 1.575 0 .735-.596.656-1.312.656-.815 0-1.122-.161-1.706.131-.113.057-.589 1.178-.656 1.312-.22.44-.837.615-1.181.787-.502.251.074 1.458.132 1.574.212.425.781.513 1.049 1.05.36.719-.093 1.087.394 1.574.417.417.339.741 1.049.918.645.161.4-.067 1.181-.262.451-.113.59.72.918 1.049.168.168.131 1.18.263 1.443.329.659 1.078-.411 1.312.525.193.773.896.142 1.18 0 .446-.223.171.997.394 1.443.251.503 1.227.44.525-.262-.362-.362.4-.947.524-1.443.049-.196-1.452-.363-1.574-.394-.806-.201-.354-.826-.131-1.049.392-.393 1.135.696 1.181.787.001.001.558-.919 1.049-.919.964 0 .693-.618.263-1.049-.799-.799-.011-.645 0-.656.216-.216.781.274.918 0 .41-.82.394.657.394 1.05 0 .159 1.082-.189 1.311-.132.911.228.807-.075.919-.525.024-.098-1.116-.722-1.181-.787-.554-.553-.787-.397-.787-1.311 0-1.028-.157-1.024-.656-.525-.427.427-.554-.161-.918-.525-.426-.425-.656 1.248-.656 0 0-.535-.331-1.056-.525-1.443-.225-.45.057-1.539.131-1.837.18-.719.161-.131.787-.131.376 0 .74-.871.919-1.05.532-.532 1.001-.179 1.312.132.801.802.957.272 1.705-.263.033-.023-1.11.121-.656-.787.233-.465.114-1.409.262-1.705.237-.473.414.61 1.116.459.557-.12.393-.48.393-1.05 0-.333.681-.022.853-.065.907-.227.422-.445 1.049-.132.127.064 0 1.756 0 1.968 0 .489-.143.969-.262 1.444-.086.342-.734-.027-1.05.131-.259.13-.393-.554-.393.787 0 .585-.656.414-.656 1.312 0 .614-.541.393-1.312.393-.396 0 .149-.9-.131-1.18-.543-.543-.96.297-1.05.656-.198.791.891.669-.131 1.18-.614.307-.358.858-.131 1.312.124.249.9.778 1.181.919.195.097.508 1.164.656 1.311.174.175.425-.134.655.788.103.409.336.161.525.918.24.958-.653.656-1.18.656-.729 0-.818.454-1.05.918-.363.726.155 1.154-.787.919-.552-.138-.874-.83-.394.131.185.369-.421.759.132 1.312.433.433.418.787 1.18.787.899 0 1.024-.08 1.312-.656.314-.628.445-.787 1.312-.787 1.553 0-.326.271-.131 1.049.138.552 1.063.357 1.443.263.5-.125-1.15-1.01.262-.656.625.156.918 0 1.312-.394.369-.369.725-1.049-.131-1.049-.585 0-1.187.129-1.705 0-.59-.148-.95-.263-1.706-.263-.999 0-.062-.594.131-.787.198-.198.275-.531.525-.656.238-.119.668.107.787-.131.098-.196-.312-.341-.525-.394-.417-.104.877.22 1.181.525.248.248.737.157 1.05 0 .233-.116 1.949.769 2.23 1.05.311.311.393 0 .787-.394.247-.246-.375-.974-.262-.525.128.515 1.314.196 1.574.131.496-.124.321-.656 1.312-.656.751 0 1.087-.131 1.837-.131.729 0 1.193-.396 1.705-.525.418-.104.094 1.181.525 1.181.297 0 .638-1.032.787-1.18.621-.621.787-.063.787.655 0 .457.904-.189 1.312-.393.525-.263.128-1.187 0-1.443-.356-.712.153-.815.787-.656.474.118.083-1.098-.262-1.443-.295-.295-1.128-.446-1.443-.525-.59-.148-1.164-.074-.263-.525.737-.368.61-1.261-.131-1.705-.414-.248.297-1.119.394-1.312.278-.557.567-.699.918-1.05.401-.4.712-.58 1.05-.918.375-.376.393-.965.393-1.574 0-.52.131-1.157.131-1.837 0-.119-.844.554-1.049.656-.617.309-.957.309-1.574 0-.629-.314-.76-.543-.919-1.181-.228-.913.186-1.03.787-1.18.504-.126.732 1.09.787 1.311.156.622 0-.798 0-1.18 0-.539-.494-.99-.655-1.312-.235-.469-.611-.645-1.181-.787-.615-.154-.824-.468-1.05-.919-.273-.546-.262-1.01-.262-1.705-1.304.652-1.918.666-3.413.666-.419 0-.904-1.836-.989-2.176-.197-.788-.594-1.67-.594-2.571 0-.696-.869-1.463-1.186-1.78-.677-.677-.964-.791-2.176-.791-.925 0-1.112.914-1.582 1.384-.653.653-1.302.263-1.583 1.385-.209.838-.644 1.288-.989 1.978-.4.8.427.815.198 1.731-.2.798 1.377.92-1.434 2.769-.718.472.888 2.047.544 2.472-.51.63-.961.205-1.285-.445-.407-.813.624-.608-.297-.791-.813-.161-2.37-1.235-3.066-1.583-.854-.426-1.104-.593-2.374-.593-1.174 0-2.168.293-3.065.742-.266.132-.911.871-.586 1.539Zm38.412-33.87c.595.247 1.018-.115 1.575-.394.537-.269.489-.614 1.18-.787.16-.04.245-1.634.263-1.705.182-.731-.045-1.137.656-1.312.504-.126.731-.6 1.049-.919.294-.293 1.324.263 1.706.263.86 0 1.169-.011 1.574.394.454.453.788.492 1.443.655.748.188.938.535 1.443.788.433.216 1.583-.068 1.837-.132.863-.216-.514-1.175-.525-1.18-.482-.241-.873-.479-1.181-.788-.532-.532-.524-.331-.524-.655 0-.136-1.485-.416 0-.788.828-.207 1.11-.07.524-.656-.498-.497 1.16.121 1.181.132.61.305.8.407 1.181.787.362.362-1.215.067-1.443.525-.163.325.855.855 1.049 1.049.655.655-.419.879.787 1.181.28.07.953-.953 1.05-1.05.587-.587.787-.321.787.263 0 .51-.885.795.131 1.049.721.18.728.498.525 1.312-.151.605-.394.833-.394 1.706 0 .54.58.801 1.05.918.725.181.779.166 1.443 0 .511-.128-.259 1.063-.131 1.574.122.491.922.791 1.18 1.05.469.468-.378.911-.655 1.049-.667.334-.324.927-.132 1.312.278.556.548.703.787 1.181.345.689.688.837-.262 1.312-.315.158.381.8.131 1.049-.555.556-.772.292-.393 1.05.095.19 1.069-.131 1.574-.131.489 0-.044 1.005-.262 1.443-.146.291 1.235 0 1.443 0 .534 0 1.043.631.787-.394-.172-.688-.107-1.098.131-1.574.051-.102 1.377.852 1.443.918.371.371.235-1.105 0-1.574-.218-.437-.417-1.142-.525-1.574-.255-1.021.849-.232 1.05-.131.67.334 1.181-.083 1.181.918 0 .463-.525.778-.525 1.443 0 .623.904.262 1.443.262.647 0 .787.501.787 1.181 0 .465-.937.467-1.049.918-.04.16.719.911.787 1.181.143.572 0 1.375 0 1.968 0 .553.776.656 1.312.656.502 0 1.168.292 1.574.393.258.065-.127.723.131.788 1.139.284.794-.027.656.524-.021.083-.26 1.397.586 1.397.608 0 1.47.353 1.907.571.31.155 0 1.372 0 1.443 0 .557.931.683 1.18 1.181l.656 1.312c.259.517.459.852.787 1.181.499.498.633-.263 1.444-.263.551 0 .655.859.655 1.05 0 .471-.848.14-.393 1.049.215.429.416 1.011.525 1.443.147.59.262.95.262 1.706 0 .751.131 1.087.131 1.837 0 .76-.262 1.078-.262 1.836 0 .767-.139 1.21-.263 1.706-.169.679-.269.931-.524 1.443l-.656 1.312c-.263.524-.489 1.099-.751 1.623-.268.536-.595.688-.808 1.115-.205.41-.312 1.333-.409 1.722-.137.549-.434.919-1.05.919-.272 0 .102-1.647-.524-.394-.265.53-.064 1.308-.263 1.705-.181.364-.908.651-1.18.788-.504.251-.85.376-1.444.524-.123.031.132-.682.132-1.312 0-.918-.471-.569-.656-1.311-.115-.459.835-.943 1.049-1.05.535-.268 1.181.056 1.181-.787 0-1.148.347-.513.595-.017.046.092 1.254-.693 1.254-1.024 0-.505.88-.856 1.061-1.217.439-.879-1.62-1.262-1.992-.891-.547.548-.531.587-1.18.263-.607-.304-.24-.749-.919-.919-.01-.002-.939.94-1.049 1.05-.564.563-1.046.254-.656-.525.341-.682.176-.742-.263-1.181-.532-.532-.166-1.014.132-1.312.436-.436.767-.529 1.311-.393.392.098-.557.607-.918.787-.794.397 1.109.656 1.312.656.626 0 .049-1.394-.394-1.837-.45-.45-.516-.664-1.049-.131-.191.191-.829.173-1.181.525-.627.627-1.049-.136-1.049-.656 0-.636.567-.798 1.049-.918.363-.091.786.129 1.05.393.329.329-.59-.721-.919-1.049-.47-.471-.483-.624-.655-1.312-.168-.671.616-.787 1.18-.787.589 0 .525.878.525 1.443 0 .945.227.535.394-.132.193-.773-.207-1.2-.394-1.574-.241-.482-.563-.733-.787-1.181-.267-.534.544-1.199-.263-.393-.695.695-.349.173-.131-.263l.656-1.311c.221-.442.401-.949.525-1.443.103-.415.6-.808.787-1.181.247-.494.19-1.167.394-1.575.321-.642.082-1.098.656-.524.406.406.366 1.028.262 1.443-.178.711-.113.954 0 1.181.229.457.401-.947.525-1.443.127-.51.139-1.214.262-1.706.226-.902-.245-1.185-.787-1.05-.297.075 0 .613 0 .919 0 .439-.919-.328-1.312-.131-.367.183-.511 1.022-.656 1.311-.279.558.003 1.063.131 1.575.094.374-.221.345.132 1.049.174.348-1.177.004-1.444-.262-.78-.78-.305.832-.262.918.578 1.157-.58.338-.787.131-.356-.356-.774-.249-1.181-.655-.156-.157-.757.419-1.181.524-.782.196-.522-.647-.655-1.18-.121-.48-.829-.607-1.05-1.05-.509-1.017-.635-.048-.525.394.177.706.394.918.131 1.443-.376.753.043 1.039-1.049 1.312-.29.072-.593 1.061-.656 1.311-.168.672-.028.939.131 1.575.062.246-.42 1.024-.525 1.443-.201.807.246 1.201.525 1.574.409.545.424.927.263 1.575-.119.475.992.524 1.443.524.859 0 1.17-.01 1.574.394.554.553-.209.932.787 1.181.809.202.743.478.918 1.18.053.212-.52 1.172-.656 1.443-.212.425-.041 1.479-.131 1.837l-.393 1.574c-.043.171.524.922.524 1.443 0 .733.012.896-.262 1.444-.283.566-.22.874-.918 1.049-.956.239-.279-.623-.131-.918.288-.577.236-.948.393-1.575.119-.474-1.093-.218-1.312-.656-.005-.011-.619.638-.918.788-.356.177-.769-.901-.918-1.05-1.19-1.189-.815-.027-.394.394.444.444.401.889.262 1.443-.128.512-1.069-.283-1.443-.656-.622-.623-.71-.34-.131-.919.446-.446.982-.137.787-.918-.111-.443-.869.504-1.312.394-.394-.099-1.07-2.103-.131-4.723.148-.414 1.104-.044 1.498-.24.454-.227.618-.228.995-.416.753-.377-.135-1.001-.147-1.05-.036-.144-.749-.765-.903-.918-.451-.451-.069-.78-.525.131-.251.503-.527.788-1.049.919-.669.167-.656-.718-.656-1.312 0-.914-.231-1.15-.656-1.575-.341-.34-.903.292-1.312.394-.881.22-.787-.49-.787-1.181 0-.487.126-1.202 0-1.705-.068-.273-.745.131-1.05.131-.464 0 .59-.721.919-1.05.491-.491 1.705-.66 1.705-1.443 0-.695.004-1.187.131-1.443.229-.458-.985-.296-1.443-.525-.564-.282-.511.104-.787.656-.25.501-.964-.57-1.049-.656-.699-.698-.208-.393-1.312-.393-.128 0-.595.193-1.05-.263-.523-.522-.141-.915.394-1.049.774-.193.911.759.918.787.124.497.401-.946.525-1.443.031-.123-1.105-1.387-1.574-.918-.311.31.065.918-.132 1.312-.229.457-.524-.932-.524-1.443 0-.529-.851-.405-.656-1.181.085-.34.441-.728.262-1.443-.071-.286 1.11.111.918-.656-.121-.488-.521-.915-.787-1.181-.5-.5-.806-.581-.656-1.181.096-.382 1.108.51.525-.656-.233-.466-.569-.875-.787-1.312-.305-.609-.525-.574-.525-1.18 0-.353.8.118 1.05-.131.506-.507.424-.594.787.131.448.897.525-.044.525-.656 0-.743.348-.983.787-1.312.175-.131.37.548.525.393.464-.464.544-.524 1.18-.524.232 0 .573.96 1.443.524.558-.278-.038-.941-.131-1.311-.021-.086-1.217.608-1.312.656-.955.477-.559-.456-.393-.788.37-.741-.515-.101-.919 0-.59.148-.949.263-1.705.263-.567 0-.871-.382-1.443-.525-.709-.177-1.108-.357-1.706-.656-.458-.229-.94-.53-1.443-.656-.524-.131-.775-.522-1.312-.656-.791-.198-.089.567.131.787.568.568-.58.656-1.049.656-.937 0-.172-.767.131-.918.021-.011-.924-.662-1.181-.918-.569-.57-.45-.3-.656.524-.101.407-.976-.029-1.18.787-.091.363-.687-.303-1.05-.393-.458-.115-.35.83-1.049.131-.505-.505-.542-.592-.656-1.049-.14-.558 1.13.262 1.705.262.527 0-.104-1.103.131-1.574.166-.331-.103-1.293 0-1.706.056-.223.642-.599.788-1.181.114-.457-.182-.847-.132-1.049.059-.237.525-.573.525-1.443 0-.672-.837-.263-1.443-.263-.959 0-.159.075-.656-.918-.266-.532-.09-.891.131-1.443Z"/>
		<path fill="rgb(150 150 150)" d="M132.941 81.567c.44.228.805.61 1.294.732.526.056.786-.506 1.186-.736.181.227-.21.72-.235 1.045-.043.301-.344 1.02.146 1.033.402-.181.716-.521.988-.859.149-.358.534-.726.859-.303.255.434.676.172.957-.085.273-.25.471.026.243.268-.235.464-.61.9-.625 1.442-.024.306.404.665.405.819-.232-.003-.707-.304-.801-.123.286.452.671.842 1.084 1.18.217.094.909.469.366.589-.277.132-.759-.162-.906.119.095.502.426.919.647 1.371.1.215.342.591.283.724-.276-.144-.7-.296-.93.003-.265.383-.018.9-.254 1.287-.355-.096-.432-.609-.625-.899-.33-.634-.417-1.414-.98-1.908-.5-.511-.9-1.11-1.412-1.609-.562-.603-.62-1.455-.865-2.202-.224-.597-.678-1.094-.792-1.736a3.722 3.722 0 0 1-.033-.152Zm-65.147 46.248c.757 0 .656-1.19.656-1.968 0-.764-.49-.65-.656-1.311-.187-.748 1.402.09 1.443.131.311.311.886-.238 1.312-.131.427.106-.328.918-.131 1.312.171.341 1.668-.254 1.705-.263.712-.178-.143.799-.262.918-.478.478.028.843.262 1.312.393.786-.138.921-.655 1.05-.297.074-.823-.989-.919-1.181-.234-.467-.749-.618-1.049-.918-.448-.448-.576.233-.788.656-.148.298-.609.27-.918.393Zm6.428-1.049c-.346.692.954.927 1.444 1.049.51.128-.004-1.063-.132-1.574-.309-1.236-.873.613-1.312.525Zm4.199-.525c-.16-.636.987.888 1.574 1.181.457.228-.25-.781-.525-.919-.457-.228-.371-.262-1.049-.262Zm1.311 2.755c-.818-.409-1.145-.251-.918.656.16.638 1.211.058 1.443 0 .494-.123.98.621 1.312.787.527.263 1.321-.267 1.575-.393.423-.212-.658-.329-1.05-.525-.625-.313-.846-.525-1.574-.525h-.788Zm-9.97 3.28c-.752 0-.787-.5-.787.918 0 .775.596 1.025.787.263.066-.266 0-.997 0-1.181Zm-7.609-8.134c.095-.379-1.05.134-1.05.525 0 .289 1.008.7 1.181.787.393.196-.045-.881-.131-1.312Zm0 3.411c.51.255-.663-.933-.918-1.443-.54-1.08-.73.363-.656.656.17.682.011.686-.394.787-.636.159 1.405.337 1.968 0Zc.419-.252-.212 1.325.262 1.443.787.197.515-.999-.262-1.443Zm1.443-9.708c.272.068-.593.384-.525.656.07.279 1.143.572 1.312.656.212.105.359 1.436.394 1.574.102.411.656 1.316.656.262 0-.788-.287-.967-.525-1.443-.335-.67-.48-1.04-1.312-1.705Zm-10.758-7.609c-.218-.437.182 1.193.656 1.312.914.228-.664-1.353-.787-1.968-.119-.596-.638-.884-.918-1.443-.463-.926-1.367-.055-.262 1.049.434.434.714.572 1.311 1.05Zm7.478-1.574c.294.293-.579.809-.393 1.18.31.621.303.877-.132 1.312-.25.251.506 1.259.788.131.191-.766.204-.889.787-1.18.107-.054-.782-.997-1.05-1.443Zm29.69 21.809c-.867-1.085-2.013-2.938-3.154-4.175-1.438-1.426-2.457-3.179-3.311-4.998-.916-1.305-1.645-3.751-2.703-4.4.099.977-1.271 1.572.321 2.028 1.655.724.938 2.914 2.371 3.789.77 1.612 1.765 3.134 2.85 4.565.75.901 2.848 2.472 2.688 3.126-.708-1.768-2.791-2.727-4.588-2.79-1.411.663 1.429 1.391 2.121 1.12.909-.003 2.751 1.663.878.887-1.083.827-2.224-.982-3.127-.215.303.559 2.749.81 2.127 1.115-.748.021-2.589-1.27-2.499.044.921.563 2.4.168 3.08.87-.527.81-1.32.702-1.999 1.136-.183 1.403 2.675.093 1.18 1.3-1.632 1.595 1.807-.009 1.639.08-.938 1.108.423.774.834.73-.701 1.518-1.758 2.8-2.604 4.229-1.002 1.227-1.777 2.644-2.968 3.711-.551 1.184 1.069-.485 1.368-.798 1.642-.999 2.643-2.74 3.641-4.304.526-.904 1.206-2.1 1.778-2.76.921 1.307-.078 2.926.263 4.522 1.337.954-.346 2.64.36 3.501 2.331.113 1.476-2.442 1.404-3.832-.235-.888.629-1.68.936-.475-.093.819.528 1.447.526.279-.029-.783.089-1.234.318-.173.216.595 1.555 2.81 1.279.886.015-.987-1.56-2.506-.353-3.187 1.071.604 1.917 1.359.913 2.513-1.062.52.904 2.221 1.428 1.08 1.015.186 1.354-.655 1.692-1.265 1.203 1.06 3.406-.04 4.105-1.054-.562.074-2.125-.662-.642-.406.624.253 2.247.551.977-.344.167-.782 2.16.174 2.964.067-.04-1.039-2.184-.553-1.546-2.096-.402-.918-1.963 1.769-1.81-.12-.534-1.176-1.074.521-.785 1.048-1.049-.568-.986 1.759-1.216.238.313-.769 1.148-2.19.519-2.865-.654.753-2.09.62-2.756.302 1.634-.023 3.224-.454 4.779.147 1.329-.015 1.902-.967 2.683-1.742 1.023.073-.442-2.557-.8-1.073-.457 1.648-1.818 1.097-2.916.593-.414.363-2.197.778-2.034.376 1.311-.442 3.148-.284 4.046-1.18-.252-.422.852-1.27.096-1.175.792-1.027 1.421 1.022 2.159-.433 1.767-.56 3.727-.717 5.376-1.521.936-.821 3.47-1.184 3.447-2.353-1.635.131-2.962 2.068-4.84 1.991-1.662.861-3.458 1.642-5.374 1.605-.642.041-2.473.061-.835-.371 1.361-.09 3.34.148 4.132-1.205-.524-1.101-3.053 1.306-3.364.059 1.218-1.071 2.509-2.006 3.752-3.013.951-.657 3.028-1.529 1.401-2.627.835-1.202 4.745-.841 3.636-3.086-1.872-1.517-2.022 1.831-3.512 1.916-.659-.616-2.586.217-1.979-1.183-1.225-.424-2.972 1.933-.726 1.718-.015.837.91 2.397 1.575 1.657-.372-1.367 1.542-.514.373.291-.826.597-1.77 1.769-2.779 1.01-1.158.52-1.179-.426-.491-1.033-1.072-.571-2.323.398-2.269-1.471-.892-.105-2.675.24-1.233-1.011 1.521-1.056 1.759-2.941 2.983-4.238.798-.407 1.324-2.02-.065-1.175-.862 1.082-.937 3.649-2.406 3.789.073-1.591-1.31 1.169-.773-.54.378-.717.078-1.524-.232-.362.232 1.227-2.029 2.329-1.109 3.241.971-.054-.799 2.705-.996.677-.2-.591-.087-2.099-.927-.928-.267 1.509-1.648.535-1.067-.616-.286-1.094.885-2.331.742-3.125-1.367 1.274-1.025-1.361-2.111-.982-.397 1.423 2.16 1.717 1.158 3.369-.385 1.94-.598-1.529-1.53-.079-1.31.257-.796 2.672-2.538 2.203-.332-1.464-1.24-.686-1.279.368-.966.091-1.183-1.379-2.281-.489-.743-.219-1.208-.825-1.484.371-.715.266-2.061-1.041-1.981.632.02 1.233 1.757.649 1.619 2.049.852.501.211.183.02.563.939.567 2.353 1.715 1.5 2.869-1.155-1.257-2.635-2.198-3.292-3.886-1.175-1.314-1.359-3.179-2.346-4.614-1.911-1.059-.703-3.027-1.364-4.663-1.02-1.526-2.255.882-.861 1.513.795 1.458 1.535 2.841 2.252 4.332.433 1.699 1.461 3.116 2.318 4.61.967 1.199 2.365 2.116 3.009 3.549-1.41-.881-2.114-2.467-3.379-3.521-.167-.38-1.364-2.237-1.25-1.261.98 1.575 2.397 2.792 3.46 4.305.249.838 1.479 1.35 1.408 2.244Zm-1.484-48.835c-.02-1.602.431-3.173.263-4.788-.16-1.755.451-3.521.078-5.254-.692-.591-.575 1.89-.603 2.515.363 1.431-.687 2.897-.01 4.188.445 1.224-.428 2.82-1.146 3.734-2.058.109-.562-2.565-.2-3.565.028-1.781-.317-3.521-.818-5.223-.045-.839-1.097-3.372-.885-1.141-.14 1.57.523 3.013.681 4.545.007 1.573.12 3.214-.243 4.735-.866.502-3.534-.008-2.831-1.149 1.97-.028-1.967-2.497.512-2.716.923-.271 1.739.795 1.74-.776.833-2.257-1.869-1.564-2.869-.756-.179-1.002-.084-3.116-.819-3.524-.981 1.356.56 2.773.201 4.22-.148.63.991 1.316-.266 1.194.206 1.134.146 2.204-1.203 2.547-.397 1.832-2.227.286-3.275-.031-.428-1.787-2.825-.37-3.664-1.827-.415-.59-1.394-.668-.386.055 1.227 1.231 3.29 1.406 4.115 3.07-1.423.274-2.673-1.147-4.039-1.534-.491-.508-3.38-.962-1.539-.14 1.604.96 3.411 1.601 4.868 2.798-.507.818-2.755-.184-3.863-.356-.469.219 1.879 1.186 2.583 1.316-.62.231-2.952 1.066-1.27 1.208 1.051.25 2.571-1.663 3.103-.653-.308.958-.013 1.708-.353 2.545.295.833 2.99 1.576.862 1.788-.882-.088-2.545.539-.793.847 1.193-.066 2.915-.052 3.776-.355-1.301.567-2.765.919-4.117 1.259-.819-.276-3.102-.957-3.211-.22.951 1.053 3.109.318 3.665 1.315-1.022-.259-3.327-.762-2.535 1.083-.45.993-.651 1.937.491 2.544.111 1.553 2.732.29 2.127 1.857 1.272.345 2.644.604 3.028 2.182.402.558.238 2.477 1.272 1.243-.422-1.367-.47-2.811-1.228-4.069-.58-1.361.398 1.352.959 1.466.875 1.056 1.223-1.811 2.145-.344 1.46.416-1.309-1.929.543-2.072 1.814-.393 1.18 2.44 1.177 3.548.015.835-.029 1.984-1.12 1.074-1.469-.47-.423 1.251-1.214 1.773-.337 1.275.725 2.702 1.77 1.315.552 1.45 1.667 2.494 2.921 3.274 1.007.929 1.408 2.11.992 3.43.887.057 1.074-1.558 2.215-1.434.613-1.262-.01-3.237-1.299-3.735-.928-.96 1.721-.91 1.254-2.278.451-.724.078-3.294-.722-1.937.729.993-.253 2.414-.557.757.753-1.279-.471-1.896-1.084-2.644.403-1.869-1.335-3.176-.485-5.041.103-.66 1.008.922 1.724.535 1.428.285 2.896.194 4.34.33 2.202-.181-1.159-1.711-1.963-1.565-1.296.523-2.654.065-3.696-.765-1.916-1.101 1.291-1.654 2.144-1.014 1.033.399 1.668 1.88 2.448 2.082.961-.874.409-2.65 1.785-2.954.006-.836-2.517-1.782-.359-1.952 1.592-1.098-1.456-1.233-2.128-1.697.208-.919 2.215-1.877.73-2.964-1.123-.038-.847-1.938-1.866-.732-1.804 1.174-.202-1.379-.401-1.742-.566-.305-.99.378-1.452.575Z"/>
		<path fill="rgb(175 175 175)" d="M144.278 82.03c-.513-1.027.771 2.166 1.05 3.28.277 1.107-.972.156-1.181 0-.052-.04.404 1.322.525 1.443.422.422-.185 1.103-.394 1.312-.266.266-.622.85-.787 1.18-.275.55-.895.394-1.574.394-.888 0-.98-.587-1.443-1.05-.469-.469-.105-.839-.787-1.18-.485-.243-.864-.81-1.05-1.181-.247-.494-.555-.716-.787-1.181-.438-.877-.095-.506.393-.262.998.499.245-.692.132-.918-.378-.756-.773-.424-.394-1.181.279-.558.875-.481 0-.919-.568-.283-.787-.448-.787-1.18 0-.53.506-.9.787-1.181.456-.456.444-.969.787-1.312.398-.397.908-.394 1.575-.394.801 0 .976.423 1.443.657.407.203.651.782.918 1.049.401.401.449.843.787 1.181.521.52.654 1.276 1.312 2.099m-25.451-25.582c-.632.158-.317 1.334-.131 1.705.309.619-.494.106-.918 0-.586-.146-.643-.462-1.443-.262-.876.219-1.183-.136-.788.656.368.734-.852.23-1.049.131-.411-.205-.919-1.263-.919 0 0 .645-.544.792-1.049.918-.835.209-.918.087-.918 1.05 0 .851-.156.709-.788.393-.536-.268-.939-.235-1.574-.393a6.505 6.505 0 0 1-1.443-.525c-.558-.279-.478-.611-1.181-.787-.547-.137-.916-.458-1.312-.656-.518-.259-.824-.431-1.312-.918-.582-.583-.723-.72-.262-1.181.659-.659-.125-.395-.656-.263-.485.122-.752.517-1.312.656-.75.188-.883.01-1.049-.656-.185-.74.579-.694-.394-1.18-.545-.273-1.539-.221-2.23-.394-.684-.171-.979-.376-1.574-.525a3.31 3.31 0 0 0-1.706 0c-.556.139-.898.52-1.443.656-.516.129-.921.461-1.312.656-.572.286-1.211.051-1.574-.131-.633-.316-1.029.056-1.443.263-.835.417-.538.144-.131-.263.436-.436.561-.468 1.312-.656 1.031-.258-.533-.262-.919-.262-.82 0-.978.244-1.574.393-.871.218-.729.226-1.181 0-.371-.185 2.242-.566.131-.918-.782-.13-.125-.793.131-1.05.187-.186-1.213-.131-1.574-.131-1.027 0-1.066-.148-1.312-.393-.058-.059 1.608-.263 1.837-.263.576 0 1.134-.283 1.574-.393.815-.204.083.656 1.181.656.213 0 .666-.823 1.05-.919.446-.111.678.159 1.311 0 .714-.178 1.029.142 1.575-.131.405-.203.612-.699 1.049-.918.72-.36.331.797.394 1.049.047.189.889.409 1.049 1.05.115.457.855-.639 1.312-.525.451.113.536.325 1.312.131.51-.127 1.214-.139 1.706-.262.656-.164.317-.863 1.049-.131.538.537-.086.875.787 1.312.494.247 1.143.285 1.575.393.55.138.875.438 1.311.656.461.23.588.687 1.05.918.951.476.306-.612.131-.787-.675-.675.443-.832.787-.918.556-.139 1.991 1.061 2.493 1.312.503.251 1.004-.611 1.181-.787.251-.251 1.483.207 1.705.262.79.198 1.214.396 1.05-.262-.128-.513 1.315.143 1.443.656.059.236 1.491.131 1.837.131.235 0 .985.689 1.18.787.631.316.774.407 1.181 0 .719-.718.787.867.787 1.05Zm-11.545 8.133c-.305.525-.008 1.38-.787 1.575-.258.064-1.314-.46-1.443-.525-.629-.315-.334-.736-1.181-.525-.404.101-.321 1.416-.393 1.706a3.877 3.877 0 0 0 0 1.705c.094.377.704.836.918 1.05.443.442.657.79.787 1.312.122.487.171 1.337.263 1.705.02.083-.585 1.168-.656 1.312-.388.775-1.078-.16-1.312-.394-.388-.388-.72-.639-1.312-.787-.498-.124-.77-.651-1.312-.787-.764-.191-1.057.291-1.181.787-.2.8.48.874.787 1.181.533.532.437.744 0 1.181-.398.398-1.229-.574-1.311-.656-.315-.315-.436-1.085-.525-1.443-.115-.459-.847-.453-1.181-.787-.462-.463.032-1.376.131-1.575.357-.713 2.245-.131 2.886-.131.465 0 .503-.842.919-1.05.846-.423.404-.131-.525-.131-.49 0-1.018.419-1.443.525-.865.216-.372-.961-.262-1.181.361-.723.28-.899-.132-1.312-.34-.34-.976.117-1.443 0-.422-.105-.814-.683-1.049-.918-.438-.437-.823-.561-1.181-.918-.55-.55.439-.942.656-1.05.481-.24 1.088-.262 1.705-.262.804 0 .919-.285.919-1.05 0-.717-.506-.787.656-.787.519 0 .85.508 1.443.656.175.044 1.06-.393 1.574-.393.687 0 1.165-.067 1.312-.656.28-1.119.901.587.918.656.23.917.013.931.525 1.443.49.49.856-.669.918-.919.181-.721 1.15.662 1.181.787.054.217.088.438.131.656Zm-7.8 6.822c0 .362-.385.656-.858.656-.474 0-.858-.294-.858-.656 0-.362.384-.656.858-.656.473 0 .858.294.858.656Zm3.602-3.115c0 .416-.264.754-.59.754-.326 0-.591-.338-.591-.754 0-.417.265-.755.591-.755.326 0 .59.338.59.755ZM73.173 86.359c-.763-1.955-3.112-2.683-1.443-5.116-3.56-.554-.301-2.87-2.554-4.855 1.864-.01 2.907 2.08 1.848-.917 1.095-2.681 2.677.949 4.524-1.276 3.592-1.043.735-3.3-1.588-1.742-1.768.865-4.826-.884-1.181-1.05 4.538-1.213-.735-2.948-2.816-2.662-2.504-.008 1.464-5.931-1.615-3.269 1.08 4.753-6.402 2.012-5.933 4.095 2.462 1.268-4.093 2.961-4.854 5.116-1.601 1.488-4.33 4.272-.656 1.574 3.178-.941 7.545-7.52 9.95-4.152-1.641 2.648-3.236 5.518-6.521 3.052-2.098 1.615 4.371 1.514 1.412 4.307-.259 3.832 2.657-3.413 2.215 1.062.82-3.376 1.042-.713 2.05-.296 3.744-2.214 1.149 2.177-.961 2.88-4.704 2.515 4.859 3.341.637 5.347-.481 1.361-8.953-.161-3.796 1.182 2.552-.311 4.724.508 1.052 1.112-2.864 3.849 3.568-1.018 3.567 1.985.279 2.229 4.042 3.499 2.342.045.642-3.354 1.843 1.203 1.759 1.283 1.119-2.316 2.953-4.93 2.562-7.705Z"/>
		<path fill="rgb(100 100 100)" d="M98.886 96.198c.315-.45.623-1.046.788-1.705.199-.798.72-.396.918 0 .301.602.338.834 1.049.656.88-.22-.356-.965-.524-1.05-.709-.354-.504-.677-.132-1.049.533-.533.759-.291 1.181.131.189.189.427 1.247.525 1.443.233.466.405-.895.262-1.181-.388-.777.757-.729 1.05-.656.892.224.204 1.823.131 1.968-.322.644-.448.679-.131 1.312.282.564.552.678.393 1.312-.032.131-1.559.131-1.836.131-.095 0-.977.846-1.05.919-.473.472-.356.745-1.049.918-.626.156-.929-.527-1.444-.656-.514-.129-.655-.772-.655-1.312 0-.51.185-.616.524-1.181Zm28.206-27.55c.244.244 1.028-.021 1.443.394.658.658-.533 1.117-.787 1.181-.749.187-.731-.15-1.049-.787-.136-.272-1.279-.361-.525.393.652.652.079.525-.787.525-.126 0 .655.786.787.918.109.109-1.405.085-1.574 0-.592-.295-.762-.421-.919-1.049-.187-.751.64-.796-.393-1.312-.022-.011.095.882-.525.262-.663-.663.355-1.049-.656-1.049-.766 0-.38.466-1.05.131-.317-.159.896-1.027.919-1.05.161-.161 1.427-.32 1.574-.393.456-.228-.663-.817-.787-1.312-.064-.258.529-.067.787-.131.308-.077.468.074.919.524.323.324.391-1.183 1.443-.131.249.25-.381.8-.132 1.05.375.374.676.421-.262.656-.441.11 1.456 1.133 1.574 1.18Zm18.892 21.778c.412-.413.019 1.293-.394 1.706-.431.431.119 1.287.263 1.574.279.558.049 1.212-.132 1.574-.263.526-.417 1.145-.524 1.574-.15.598-.394.716-.394 1.575 0 .489 1.05.069 1.05.918 0 .823.656.042.656-.656 0-.502-.656-.896-.656-1.705v-1.968c0-.336 1.166.759.524-.525-.344-.689.59.393.656.525.255.51-.131-1.136-.131-1.706 0-.302.564-.63.394-1.312-.02-.078-1.253-1.499-1.312-1.574Zm-61.135-5.51c-.521-.721-.941-1.716-1.923-1.878-.647-.224-1.466-.107-1.663.651-.295.757 1.088.502 1.508.771.357.386.939.932.915 1.414-.663.326-1.368.645-2.128.613-.745.192-1.091-.598-1.349-1.138-.334-.691-1.071-1.172-1.122-1.99.035-.516-.368-1.735-.791-.727-.356.623.044 1.269.437 1.751.398.688-.926.586-1.022 1.178-.34.751.313 1.619 1.1 1.655.408.067 1.836-.036 1.087.602-.423.069-.757.371-.121.459.643.314 2.023-.121 2.014.904-.569.539-1.462.839-1.647 1.69-.229.471-.349 1.579.496 1.169.447-.06.824-1.397.797-.386.044.674-.241 1.525.344 2.038.405.149 1.125-.745.925.168-.242.506-.002 1.043.601.684.852-.613.758 1.128 1.673.999.902.144.66-.918.209-1.279-.65-.127-.999-.666-.983-1.321-.2-.658-1.448.123-1.476-.755.093-.601.433-1.505-.515-1.537-.998-.324.468-.966.92-1.04.866-.175 1.846.307 2.628-.264.714-.368 1.365-1.003 2.227-.935.618.275 1.321.233 1.924.515.441.362.765.952 1.401.987.412.126 1.354.307.853-.409-.261-.63-.908-.867-1.469-1.149-.358-.246-1.34-.862-.324-.815.717.197 1.249-.143 1.034-.919.181-.774-1.209-.865-1.167-.13-.113.64-.413 1.455-1.142 1.557a6.252 6.252 0 0 1-2.336-.321c-.43-.324-1.141-1.315-.164-1.352.416-.123 1.398-.285.712-.839-.368-.54-1.234-.631-1.37-1.328.247-.717-.623-1.522-.929-.551-.139.403-.161.836-.164 1.258Zm-12.201 3.886c-.381.117-.759.432-1.175.308-.402-.139-.066-.756-.481-.821-.401-.123-.736-.49-.705-.93.004-.328.014-.943-.472-.875-.361.015-.866.161-.76.63.019.376.233.73.186 1.108-.264.342-.747-.387-.96.077-.167.294-.323.725-.744.668-.219.044-.533-.138-.687-.08.242.288.529.539.801.795.099.45-.538.402-.829.483-.484.096-.987.036-1.465.156-.38.063-.12.34.129.301.765.075 1.525-.093 2.266-.256.402.134.335.673.437 1.011.021.237.176.533.242.693-.056-.444.701-.342.789-.006.045.214.256.451.313.1.092-.25.15-.948.541-.628.238.217.259.591.438.817.238-.25.269-.633.391-.949.083-.373.543-.361.842-.333.327-.014.753.192 1.02.026-.238-.341-.639-.528-.95-.797-.17-.104-.305-.251-.005-.225.51-.055 1.036-.066 1.539-.103-.493-.149-1.012-.212-1.523-.261.099-.313.443-.516.666-.758.052-.05.107-.097.156-.151Z"/>
	<rect fill="white" y="100" width="200" height="100" />
		<rect fill="lightgrey" x="50" y="125" width="100" height="50" rx="25"/>
			<circle fill="rgb(250 200 0)" cx="125" cy="140" r="5"/>
			<circle fill="rgb(250 0 0)" cx="135" cy="150" r="5"/>
			<circle fill="rgb(0 200 0)" cx="125" cy="160" r="5"/>
			<circle fill="rgb(0 0 250)" cx="115" cy="150" r="5"/>
			<rect fill="grey" x="70" y="135" width="10" height="30" rx="5" />
			<rect fill="grey" x="60" y="145" width="30" height="10" rx="5" />
</svg>
