<svg xmlns="http://www.w3.org/2000/svg" width="100" height="100" viewBox="100 0 100 100" fill="rgb(250 250 250)">
<path d="M146.481,0L153.518,0C163.93,0.011,165.782,0.079,170.615,0.299C175.937,0.542,179.572,1.387,182.752,2.623C186.04,3.901,188.828,5.611,191.608,8.39C194.388,11.17,196.098,13.959,197.376,17.247C198.611,20.427,199.457,24.062,199.699,29.384C199.931,34.467,199.995,36.252,200,48.167L200,51.832C199.995,63.746,199.931,65.532,199.699,70.615C199.457,75.937,198.611,79.572,197.376,82.752C196.098,86.04,194.388,88.828,191.608,91.608C188.828,94.388,186.04,96.098,182.752,97.376C179.572,98.611,175.937,99.457,170.615,99.699C165.532,99.931,163.746,99.995,151.832,100L148.167,100C136.252,99.995,134.467,99.931,129.384,99.699C124.062,99.457,120.427,98.611,117.247,97.376C113.959,96.098,111.17,94.388,108.39,91.608C105.611,88.828,103.901,86.04,102.623,82.752C101.387,79.572,100.542,75.937,100.299,70.615C100.079,65.782,100.011,63.93,100,53.518L100,46.481C100.011,36.069,100.079,34.217,100.299,29.384C100.542,24.062,101.387,20.427,102.623,17.247C103.901,13.959,105.611,11.17,108.39,8.39C111.17,5.611,113.959,3.901,117.247,2.623C120.427,1.387,124.062,0.542,129.384,0.299C134.217,0.079,136.069,0.011,146.481,0ZL153.518,0ZM151.801,9.008L148.198,9.008C136.492,9.013,134.82,9.07,129.795,9.299C124.92,9.521,122.272,10.336,120.51,11.021C118.176,11.928,116.511,13.011,114.761,14.761C113.011,16.511,111.928,18.176,111.021,20.51C110.336,22.272,109.521,24.92,109.299,29.795C109.07,34.82,109.013,36.492,109.008,48.198L109.008,51.801C109.013,63.507,109.07,65.179,109.299,70.204C109.521,75.079,110.336,77.727,111.021,79.489C111.928,81.822,113.011,83.488,114.761,85.238C116.511,86.987,118.176,88.071,120.51,88.978C122.272,89.663,124.92,90.477,129.795,90.7C134.902,90.933,136.545,90.988,148.782,90.991L151.217,90.991C163.454,90.988,165.097,90.933,170.204,90.7C175.079,90.477,177.727,89.663,179.489,88.978C181.822,88.071,183.488,86.987,185.238,85.238C186.987,83.488,188.071,81.822,188.978,79.489C189.663,77.727,190.477,75.079,190.7,70.204C190.933,65.096,190.988,63.453,190.991,51.217L190.991,48.782C190.988,36.546,190.933,34.902,190.7,29.795C190.477,24.92,189.663,22.272,188.978,20.51C188.071,18.176,186.987,16.511,185.238,14.761C183.488,13.011,181.822,11.928,179.489,11.021C177.727,10.336,175.079,9.521,170.204,9.299C165.179,9.07,163.507,9.013,151.801,9.008ZZM150.624,23.749C164.777,23.749,176.25,35.222,176.25,49.374C176.25,63.527,164.777,75,150.624,75C136.472,75,124.999,63.527,124.999,49.374C124.999,35.222,136.472,23.749,150.624,23.749ZZM150.624,32.74C141.438,32.74,133.99,40.188,133.99,49.374C133.99,58.561,141.438,66.008,150.624,66.008C159.811,66.008,167.259,58.561,167.259,49.374C167.259,40.188,159.811,32.74,150.624,32.74ZZM176.25,17.499C179.702,17.499,182.5,20.297,182.5,23.749C182.5,27.201,179.702,29.999,176.25,29.999C172.798,29.999,170,27.201,170,23.749C170,20.297,172.798,17.499,176.25,17.499ZZ" fill="rgb(250, 250, 250)";/>
</svg>
