<svg xmlns="http://www.w3.org/2000/svg" width="100" height="75" viewBox="100 0 100 75" fill="rgb(250 250 250)">
	<path d="M112.5 9.375a3.134 3.134 0 0 0-3.125 3.125v4.316l33.691 27.657a10.926 10.926 0 0 0 13.887 0l33.672-27.657V12.5a3.134 3.134 0 0 0-3.125-3.125h-75Zm-3.125 19.57V62.5a3.134 3.134 0 0 0 3.125 3.125h75a3.134 3.134 0 0 0 3.125-3.125V28.945l-27.734 22.774c-7.5 6.152-18.301 6.152-25.782 0l-27.734-22.774ZM100 12.5C100 5.605 105.605 0 112.5 0h75c6.895 0 12.5 5.605 12.5 12.5v50c0 6.895-5.605 12.5-12.5 12.5h-75c-6.895 0-12.5-5.605-12.5-12.5v-50Z"/>
</svg>
