<svg xmlns="http://www.w3.org/2000/svg" width="96" height="100" viewBox="96 0 96 100" fill="rgb(250 250 250)">
	<path d="M191.612 22.14c-1.479-10.746-11.058-19.213-22.413-20.854C167.282 1.009 160.024 0 143.209 0h-.126c-16.82 0-20.428 1.009-22.344 1.286-11.04 1.595-21.121 9.204-23.568 20.076-1.176 5.354-1.301 11.29-1.083 16.735.312 7.808.372 15.604 1.098 23.38a107.531 107.531 0 0 0 2.618 15.336c2.324 9.315 11.736 17.07 20.959 20.233a57.435 57.435 0 0 0 30.663 1.582 46.541 46.541 0 0 0 3.321-.886c2.468-.768 5.365-1.628 7.495-3.136a.236.236 0 0 0 .098-.181v-7.538a.22.22 0 0 0-.088-.171.234.234 0 0 0-.191-.041 86.866 86.866 0 0 1-19.898 2.273c-11.533 0-14.634-5.35-15.524-7.577a23.07 23.07 0 0 1-1.349-5.973.22.22 0 0 1 .083-.181.23.23 0 0 1 .198-.041 85.17 85.17 0 0 0 19.572 2.272c1.586 0 3.167 0 4.753-.04 6.631-.183 13.62-.514 20.145-1.76.162-.031.324-.058.464-.099 10.291-1.933 20.085-7.996 21.08-23.348.037-.606.129-6.332.129-6.959.006-2.131.704-15.122-.102-23.102Zm-15.837 38.309h-10.824V34.542c0-5.453-2.325-8.235-7.053-8.235-5.2 0-7.803 3.291-7.803 9.79v14.18h-10.756v-14.18c0-6.499-2.609-9.79-7.809-9.79-4.701 0-7.049 2.782-7.053 8.236V60.45h-10.812V33.756c0-5.454 1.425-9.787 4.274-12.998 2.938-3.205 6.793-4.85 11.578-4.85 5.539 0 9.724 2.082 12.514 6.24l2.693 4.418 2.697-4.418c2.789-4.158 6.975-6.24 12.505-6.24 4.779 0 8.634 1.645 11.582 4.85 2.85 3.208 4.274 7.541 4.274 12.998l-.007 26.693Z"/>
</svg>
